<svg xmlns="http://www.w3.org/2000/svg" width="1024" height="1024"
     style="shape-rendering:geometricPrecision;text-rendering:geometricPrecision;image-rendering:optimizeQuality;fill-rule:evenodd;clip-rule:evenodd">
    <path fill="#445055"
          d="M326.5 652.5a115.6 115.6 0 0 0 26 25l4 2a53.6 53.6 0 0 0 12 7q22.236 12.312 48 13.5l223 1a51.25 51.25 0 0 1 20 7 149 149 0 0 0 12 9.5q7.745 13.978 8 30 .25 28.004-.5 56-5.595 31.095-36.5 37.5-12.49.75-25 .5a599 599 0 0 0-1 45q16.593.594 19 17a1723 1723 0 0 1 83 1q-41.003-.25-82 .5 45.528.309 91 1.5 22.467 5.729 25.5 29 3.969 24.967-15.5 40.5a40.1 40.1 0 0 1-14 5q-43.509.25-87 1.5-6.632 11.858-20 15.5-45 1-90 0-15.314-2.345-22-16-41 .093-82 0-32.563-6.84-33-40.5.978-33.573 34-37 2.45.991 5.5 1 37.49-.921 74.5-2 1.61-5.817 6-10 7.33-5.79 16.5-8 1.241-21.759-.5-43a5330 5330 0 0 0-146-1q-123.64-4.206-205.5-96-55.954-68.311-62-157-1-139.5 0-279Q126.715 161.953 254.5 89q51.339-26.46 109-31 136-1 272 0 36.012 4.01 43.5 39.5l.5 37.5a484 484 0 0 1-1.5 42.5q-9.823 32.063-43.5 34.5-120.039.03-240 2-70.325 15.323-90.5 84.5a262 262 0 0 0-3 18q-1 132 0 264 1.396 40.24 25.5 72"
          style="opacity:1" transform="matrix(1.1594 0 0 1.04374 -69.222 -35.442)"/>
    <path fill="#8e99a2"
          d="M422.5 733.5q100 1.043 212 2 1.839-.03 3-1 7.526 2.278 9.5 10 1 27 0 54-.469 6.698-6.5 9.5a8951 8951 0 0 1-266 1Q256.157 802.966 186 708.5q-27.389-40.443-37.5-88a228 228 0 0 1-3-21q.991-2.45 1-5.5-.98-138.49-2-276.5v-8q11.668-119.835 112-185.5 45.854-27.285 99-33 139.5-1 279 0 13.637 2.484 12.5 16.5 1 28.5 0 57 .104 12.099-11.5 14.5l-223 1q-97.642 5.682-135.5 95.5a163 163 0 0 0-9 47q-1 131 0 262 10.002 99.974 102.5 138.5 25.413 9.162 52 10.5"
          style="opacity:1" transform="matrix(1.1594 0 0 1.04374 -69.222 -35.442)"/>
    <g transform="matrix(1.1594 0 0 1.04374 -69.222 -35.442)">
        <path fill="#744f18"
              d="M619.5 252.5q-.658-.098-1 .5l2 1q119.532.258 239 1.5c.916-.043 1.583 1.624 2 1 11.224 3.386 18.724 8.719 22.5 20a282 282 0 0 1 1.5 39c-55.938.293-520.462 1.5-520.462 1.5.097-22.42-.34-55.952-.038-79.5q2.246-7.465 7.5-13 7.903-7.445 19-8.5a7917 7917 0 0 1 178 0q12.629 1.563 23 9a535 535 0 0 1 14.5 16.5q5.65 6.414 12.5 11"
              style="opacity:1"/>
        <rect width="553" height="345" x="336" y="312" rx="25" style="fill:#ae7632;stroke:#744f18;stroke-width:20"/>
    </g>
    <path fill="#ae7632"
          d="m848.5 304.5-462.5-2q-.598.342-.5 1a664 664 0 0 1-.5-63 20.5 20.5 0 0 0 2.5-3.5 1846 1846 0 0 1 85.5-1.5l83.5.5a46 46 0 0 1 10 4 533 533 0 0 0 26 29 54 54 0 0 0 9 4l244 1q2.75.75 3.5 3.5 1.236 13.764-.5 27"
          style="opacity:1" transform="matrix(1.1594 0 0 1.04374 -69.222 -35.442)"/>
    <path fill="#fefefe"
          d="M605.5 567.5q.25 16.008-.5 32-.99 2.736-3.5 4a221 221 0 0 1-36 .5q-2.356-2.096-4-4.5a303 303 0 0 0-1-34.5 3696 3696 0 0 0-86-.5 10.5 10.5 0 0 0-2.5-3q-1-21 0-42l71-116q2.333-3.832 6.5-5.5a702 702 0 0 1 53 0q1.75.75 2.5 2.5.274 63.544 1.5 127 10.013-.25 20 .5a6.98 6.98 0 0 1 2.5 3.5q1 14.5 0 29l-3.5 3.5-19 1q-1.129 1.006-1 2.5"
          style="opacity:1" transform="matrix(1.1594 0 0 1.04374 -69.222 -35.442)"/>
    <path fill="#ac7431"
          d="M564.5 456.5a2164 2164 0 0 0-1.5 66q-11.386.988-23 1-12.1-.049-23.5-2a4359 4359 0 0 1 46-75 264 264 0 0 1 2 10"
          style="opacity:1" transform="matrix(1.1594 0 0 1.04374 -69.222 -35.442)"/>
    <path fill="#fefefe"
          d="M740.5 396.5q22.005-.25 44 .5a6.98 6.98 0 0 1 3.5 2.5q1.458 75.548-1 151-10.875 44.874-56.5 52.5-27.93 4.348-52-10-24.597-22.437-16-54a361 361 0 0 1 38 0l2.5 2.5q.536 24.651 24.5 18.5 8.065-4.564 10.5-13.5l1-148q1.075-.816 1.5-2"
          style="opacity:1" transform="matrix(1.1594 0 0 1.04374 -69.222 -35.442)"/>
    <path fill="#8f9aa4" d="M554.5 842.5h33v43h-33z" style="opacity:1"
          transform="matrix(1.1594 0 0 1.04374 -69.222 -35.442)"/>
    <path fill="#8d98a2" d="M425.5 933.5h78v18q-39.503.25-79-.5-9.97-9.323 1-17.5" style="opacity:1"
          transform="matrix(1.1594 0 0 1.04374 -69.222 -35.442)"/>
    <path fill="#8e98a2"
          d="M635.5 933.5q40.503-.25 81 .5 10.758 5.312 4.5 15.5a14.4 14.4 0 0 1-5.5 2.5q-39.997.75-80 .5z"
          style="opacity:1" transform="matrix(1.1594 0 0 1.04374 -69.222 -35.442)"/>
    <path fill="#8d98a2" d="M532.5 913.5h74a777 777 0 0 1-1 55.5q-36.496.75-73 .5z" style="opacity:1"
          transform="matrix(1.1594 0 0 1.04374 -69.222 -35.442)"/>
</svg>
